<mxfile host="65bd71144e">
    <diagram id="ci9IYOUFUnLoCEgbMzHT" name="Page-1">
        <mxGraphModel dx="3377" dy="1920" grid="1" gridSize="10" guides="1" tooltips="1" connect="1" arrows="1" fold="1" page="1" pageScale="1" pageWidth="850" pageHeight="1100" math="0" shadow="0">
            <root>
                <mxCell id="0"/>
                <mxCell id="1" parent="0"/>
                <mxCell id="68" value="UART TASK" style="swimlane;whiteSpace=wrap;html=1;fillStyle=auto;fontSize=14;fillColor=#e6d0de;gradientColor=#d5739d;strokeColor=#996185;" vertex="1" parent="1">
                    <mxGeometry y="370" width="1180" height="690" as="geometry"/>
                </mxCell>
                <mxCell id="70" value="Wait for incoming message" style="rounded=1;whiteSpace=wrap;html=1;fillColor=#dae8fc;gradientColor=#7ea6e0;strokeColor=#6c8ebf;" vertex="1" parent="68">
                    <mxGeometry x="115" y="90" width="120" height="60" as="geometry"/>
                </mxCell>
                <mxCell id="73" value="&lt;font style=&quot;font-size: 14px;&quot;&gt;Timeout?&lt;/font&gt;" style="rhombus;whiteSpace=wrap;html=1;fillStyle=auto;fontSize=16;fillColor=#f0a30a;fontColor=#000000;strokeColor=#BD7000;" vertex="1" parent="68">
                    <mxGeometry x="135" y="180" width="80" height="50" as="geometry"/>
                </mxCell>
                <mxCell id="69" value="" style="edgeStyle=none;html=1;fontSize=14;" edge="1" parent="68" source="70" target="73">
                    <mxGeometry relative="1" as="geometry"/>
                </mxCell>
                <mxCell id="201" value="" style="edgeStyle=none;html=1;fontSize=14;" edge="1" parent="68" source="75" target="200">
                    <mxGeometry relative="1" as="geometry"/>
                </mxCell>
                <mxCell id="75" value="Yes" style="rounded=0;whiteSpace=wrap;html=1;fillStyle=auto;fontSize=14;fillColor=#60a917;strokeColor=#2D7600;fontColor=#ffffff;" vertex="1" parent="68">
                    <mxGeometry x="255" y="190" width="60" height="30" as="geometry"/>
                </mxCell>
                <mxCell id="71" value="" style="edgeStyle=none;html=1;fontSize=14;" edge="1" parent="68" source="73" target="75">
                    <mxGeometry relative="1" as="geometry"/>
                </mxCell>
                <mxCell id="77" value="No" style="rounded=0;whiteSpace=wrap;html=1;fillStyle=auto;fontSize=14;fillColor=#a20025;strokeColor=#6F0000;fontColor=#ffffff;" vertex="1" parent="68">
                    <mxGeometry x="145" y="260" width="60" height="30" as="geometry"/>
                </mxCell>
                <mxCell id="72" value="" style="edgeStyle=none;html=1;fontSize=14;" edge="1" parent="68" source="73" target="77">
                    <mxGeometry relative="1" as="geometry"/>
                </mxCell>
                <mxCell id="80" value="&lt;font style=&quot;font-size: 14px;&quot;&gt;Is send null?&lt;/font&gt;" style="rhombus;whiteSpace=wrap;html=1;fillStyle=auto;fontSize=16;fillColor=#f0a30a;fontColor=#000000;strokeColor=#BD7000;" vertex="1" parent="68">
                    <mxGeometry x="635" y="170" width="110" height="70" as="geometry"/>
                </mxCell>
                <mxCell id="211" style="edgeStyle=none;html=1;exitX=0.5;exitY=0;exitDx=0;exitDy=0;entryX=1;entryY=0.75;entryDx=0;entryDy=0;fontSize=14;" edge="1" parent="68" source="82" target="70">
                    <mxGeometry relative="1" as="geometry">
                        <Array as="points">
                            <mxPoint x="820" y="140"/>
                        </Array>
                    </mxGeometry>
                </mxCell>
                <mxCell id="82" value="Yes" style="rounded=0;whiteSpace=wrap;html=1;fillStyle=auto;fontSize=14;fillColor=#60a917;strokeColor=#2D7600;fontColor=#ffffff;" vertex="1" parent="68">
                    <mxGeometry x="790" y="190" width="60" height="30" as="geometry"/>
                </mxCell>
                <mxCell id="78" value="" style="edgeStyle=none;html=1;fontSize=14;" edge="1" parent="68" source="80" target="82">
                    <mxGeometry relative="1" as="geometry"/>
                </mxCell>
                <mxCell id="84" value="No" style="rounded=0;whiteSpace=wrap;html=1;fillStyle=auto;fontSize=14;fillColor=#a20025;strokeColor=#6F0000;fontColor=#ffffff;" vertex="1" parent="68">
                    <mxGeometry x="660" y="260" width="60" height="30" as="geometry"/>
                </mxCell>
                <mxCell id="79" value="" style="edgeStyle=none;html=1;fontSize=14;" edge="1" parent="68" source="80" target="84">
                    <mxGeometry relative="1" as="geometry"/>
                </mxCell>
                <mxCell id="85" style="edgeStyle=none;html=1;exitX=1;exitY=0.5;exitDx=0;exitDy=0;entryX=1;entryY=0.5;entryDx=0;entryDy=0;fontSize=14;" edge="1" parent="68" source="86" target="70">
                    <mxGeometry relative="1" as="geometry">
                        <Array as="points">
                            <mxPoint x="880" y="350"/>
                            <mxPoint x="880" y="120"/>
                        </Array>
                    </mxGeometry>
                </mxCell>
                <mxCell id="86" value="Send mesage to robot" style="rounded=1;whiteSpace=wrap;html=1;fillStyle=hatch;fontSize=14;fillColor=#dae8fc;gradientColor=#7ea6e0;strokeColor=#6c8ebf;" vertex="1" parent="68">
                    <mxGeometry x="630" y="320" width="120" height="60" as="geometry"/>
                </mxCell>
                <mxCell id="83" value="" style="edgeStyle=none;html=1;fontSize=14;" edge="1" parent="68" source="84" target="86">
                    <mxGeometry relative="1" as="geometry"/>
                </mxCell>
                <mxCell id="88" value="Process message" style="rounded=1;whiteSpace=wrap;html=1;fillStyle=hatch;fontSize=14;fillColor=#dae8fc;gradientColor=#7ea6e0;strokeColor=#6c8ebf;" vertex="1" parent="68">
                    <mxGeometry x="115" y="320" width="120" height="60" as="geometry"/>
                </mxCell>
                <mxCell id="76" value="" style="edgeStyle=none;html=1;fontSize=14;" edge="1" parent="68" source="77" target="88">
                    <mxGeometry relative="1" as="geometry"/>
                </mxCell>
                <mxCell id="91" value="&lt;span style=&quot;font-size: 14px;&quot;&gt;Forward to &lt;br&gt;MAU TASK?&lt;/span&gt;" style="rhombus;whiteSpace=wrap;html=1;fillStyle=auto;fontSize=16;fillColor=#f0a30a;fontColor=#000000;strokeColor=#BD7000;" vertex="1" parent="68">
                    <mxGeometry x="107.5" y="420" width="135" height="90" as="geometry"/>
                </mxCell>
                <mxCell id="87" value="" style="edgeStyle=none;html=1;fontSize=14;" edge="1" parent="68" source="88" target="91">
                    <mxGeometry relative="1" as="geometry"/>
                </mxCell>
                <mxCell id="92" style="edgeStyle=none;html=1;exitX=0;exitY=0.5;exitDx=0;exitDy=0;entryX=0;entryY=0.5;entryDx=0;entryDy=0;fontSize=14;" edge="1" parent="68" source="93" target="70">
                    <mxGeometry relative="1" as="geometry">
                        <Array as="points">
                            <mxPoint x="85" y="555"/>
                            <mxPoint x="85" y="120"/>
                        </Array>
                    </mxGeometry>
                </mxCell>
                <mxCell id="93" value="No" style="rounded=0;whiteSpace=wrap;html=1;fillStyle=auto;fontSize=14;fillColor=#a20025;strokeColor=#6F0000;fontColor=#ffffff;" vertex="1" parent="68">
                    <mxGeometry x="145" y="540" width="60" height="30" as="geometry"/>
                </mxCell>
                <mxCell id="89" value="" style="edgeStyle=none;html=1;fontSize=14;" edge="1" parent="68" source="91" target="93">
                    <mxGeometry relative="1" as="geometry"/>
                </mxCell>
                <mxCell id="95" value="Yes" style="rounded=0;whiteSpace=wrap;html=1;fillStyle=auto;fontSize=14;fillColor=#60a917;strokeColor=#2D7600;fontColor=#ffffff;" vertex="1" parent="68">
                    <mxGeometry x="265" y="450" width="60" height="30" as="geometry"/>
                </mxCell>
                <mxCell id="90" value="" style="edgeStyle=none;html=1;fontSize=14;" edge="1" parent="68" source="91" target="95">
                    <mxGeometry relative="1" as="geometry"/>
                </mxCell>
                <mxCell id="98" value="&lt;font style=&quot;font-size: 14px;&quot;&gt;Is recv null?&lt;/font&gt;" style="rhombus;whiteSpace=wrap;html=1;fillStyle=auto;fontSize=16;fillColor=#f0a30a;fontColor=#000000;strokeColor=#BD7000;" vertex="1" parent="68">
                    <mxGeometry x="365" y="430" width="110" height="70" as="geometry"/>
                </mxCell>
                <mxCell id="94" value="" style="edgeStyle=none;html=1;fontSize=14;" edge="1" parent="68" source="95" target="98">
                    <mxGeometry relative="1" as="geometry"/>
                </mxCell>
                <mxCell id="100" value="Yes" style="rounded=0;whiteSpace=wrap;html=1;fillStyle=auto;fontSize=14;fillColor=#60a917;strokeColor=#2D7600;fontColor=#ffffff;" vertex="1" parent="68">
                    <mxGeometry x="390" y="540" width="60" height="30" as="geometry"/>
                </mxCell>
                <mxCell id="96" value="" style="edgeStyle=none;html=1;fontSize=14;" edge="1" parent="68" source="98" target="100">
                    <mxGeometry relative="1" as="geometry"/>
                </mxCell>
                <mxCell id="102" value="No" style="rounded=0;whiteSpace=wrap;html=1;fillStyle=auto;fontSize=14;fillColor=#a20025;strokeColor=#6F0000;fontColor=#ffffff;" vertex="1" parent="68">
                    <mxGeometry x="520" y="450" width="60" height="30" as="geometry"/>
                </mxCell>
                <mxCell id="97" value="" style="edgeStyle=none;html=1;fontSize=14;" edge="1" parent="68" source="98" target="102">
                    <mxGeometry relative="1" as="geometry"/>
                </mxCell>
                <mxCell id="106" value="Write message to recv" style="rounded=1;whiteSpace=wrap;html=1;fillStyle=hatch;fontSize=14;fillColor=#dae8fc;gradientColor=#7ea6e0;strokeColor=#6c8ebf;" vertex="1" parent="68">
                    <mxGeometry x="360" y="610" width="120" height="60" as="geometry"/>
                </mxCell>
                <mxCell id="99" value="" style="edgeStyle=none;html=1;fontSize=14;" edge="1" parent="68" source="100" target="106">
                    <mxGeometry relative="1" as="geometry"/>
                </mxCell>
                <mxCell id="204" value="" style="edgeStyle=none;html=1;fontSize=14;" edge="1" parent="68" source="200" target="203">
                    <mxGeometry relative="1" as="geometry"/>
                </mxCell>
                <mxCell id="207" value="" style="edgeStyle=none;html=1;fontSize=14;" edge="1" parent="68" source="200" target="206">
                    <mxGeometry relative="1" as="geometry"/>
                </mxCell>
                <mxCell id="200" value="&lt;font style=&quot;font-size: 14px;&quot;&gt;Is error null?&lt;/font&gt;" style="rhombus;whiteSpace=wrap;html=1;fillStyle=auto;fontSize=16;fillColor=#f0a30a;fontColor=#000000;strokeColor=#BD7000;" vertex="1" parent="68">
                    <mxGeometry x="340" y="170" width="110" height="70" as="geometry"/>
                </mxCell>
                <mxCell id="205" value="" style="edgeStyle=none;html=1;fontSize=14;" edge="1" parent="68" source="203" target="80">
                    <mxGeometry relative="1" as="geometry"/>
                </mxCell>
                <mxCell id="203" value="No" style="rounded=0;whiteSpace=wrap;html=1;fillStyle=auto;fontSize=14;fillColor=#a20025;strokeColor=#6F0000;fontColor=#ffffff;" vertex="1" parent="68">
                    <mxGeometry x="475" y="190" width="60" height="30" as="geometry"/>
                </mxCell>
                <mxCell id="209" value="" style="edgeStyle=none;html=1;fontSize=14;" edge="1" parent="68" source="206" target="208">
                    <mxGeometry relative="1" as="geometry"/>
                </mxCell>
                <mxCell id="206" value="Yes" style="rounded=0;whiteSpace=wrap;html=1;fillStyle=auto;fontSize=14;fillColor=#60a917;strokeColor=#2D7600;fontColor=#ffffff;" vertex="1" parent="68">
                    <mxGeometry x="365" y="260" width="60" height="30" as="geometry"/>
                </mxCell>
                <mxCell id="210" style="edgeStyle=none;html=1;exitX=1;exitY=0.5;exitDx=0;exitDy=0;entryX=0;entryY=0.5;entryDx=0;entryDy=0;fontSize=14;" edge="1" parent="68" source="208" target="80">
                    <mxGeometry relative="1" as="geometry">
                        <Array as="points">
                            <mxPoint x="580" y="350"/>
                            <mxPoint x="580" y="205"/>
                        </Array>
                    </mxGeometry>
                </mxCell>
                <mxCell id="208" value="Send error to robot" style="rounded=1;whiteSpace=wrap;html=1;fillStyle=hatch;fontSize=14;fillColor=#dae8fc;gradientColor=#7ea6e0;strokeColor=#6c8ebf;" vertex="1" parent="68">
                    <mxGeometry x="335" y="320" width="120" height="60" as="geometry"/>
                </mxCell>
                <mxCell id="104" value="Send BUSY to robot" style="rounded=1;whiteSpace=wrap;html=1;fillStyle=hatch;fontSize=14;fillColor=#dae8fc;gradientColor=#7ea6e0;strokeColor=#6c8ebf;" vertex="1" parent="68">
                    <mxGeometry x="860" y="435" width="120" height="60" as="geometry"/>
                </mxCell>
                <mxCell id="103" style="edgeStyle=none;html=1;exitX=0.5;exitY=0;exitDx=0;exitDy=0;entryX=1;entryY=0.25;entryDx=0;entryDy=0;fontSize=14;" edge="1" parent="68" source="104" target="70">
                    <mxGeometry relative="1" as="geometry">
                        <Array as="points">
                            <mxPoint x="920" y="105"/>
                        </Array>
                    </mxGeometry>
                </mxCell>
                <mxCell id="101" value="" style="edgeStyle=none;html=1;fontSize=14;" edge="1" parent="68" source="102" target="104">
                    <mxGeometry relative="1" as="geometry"/>
                </mxCell>
                <mxCell id="108" value="Give notification" style="rounded=1;whiteSpace=wrap;html=1;fillStyle=hatch;fontSize=14;fillColor=#dae8fc;gradientColor=#7ea6e0;strokeColor=#6c8ebf;" vertex="1" parent="68">
                    <mxGeometry x="860" y="610" width="120" height="60" as="geometry"/>
                </mxCell>
                <mxCell id="107" style="edgeStyle=none;html=1;exitX=1;exitY=0.5;exitDx=0;exitDy=0;entryX=0.75;entryY=0;entryDx=0;entryDy=0;fontSize=14;" edge="1" parent="68" source="108" target="70">
                    <mxGeometry relative="1" as="geometry">
                        <Array as="points">
                            <mxPoint x="1070" y="640"/>
                            <mxPoint x="1070" y="70"/>
                            <mxPoint x="205" y="60"/>
                        </Array>
                    </mxGeometry>
                </mxCell>
                <mxCell id="105" style="edgeStyle=none;html=1;exitX=1;exitY=0.5;exitDx=0;exitDy=0;fontSize=14;" edge="1" parent="68" source="106" target="108">
                    <mxGeometry relative="1" as="geometry"/>
                </mxCell>
                <mxCell id="110" value="MAU TASK" style="swimlane;whiteSpace=wrap;html=1;fillStyle=auto;fontSize=14;fillColor=#e6d0de;gradientColor=#d5739d;strokeColor=#996185;" vertex="1" parent="1">
                    <mxGeometry y="1060" width="1180" height="680" as="geometry"/>
                </mxCell>
                <mxCell id="154" value="" style="edgeStyle=none;html=1;fontSize=14;" edge="1" parent="110" source="111" target="153">
                    <mxGeometry relative="1" as="geometry"/>
                </mxCell>
                <mxCell id="111" value="Take notificaiton" style="rounded=1;whiteSpace=wrap;html=1;fillColor=#dae8fc;gradientColor=#7ea6e0;strokeColor=#6c8ebf;" vertex="1" parent="110">
                    <mxGeometry x="425" y="40" width="120" height="60" as="geometry"/>
                </mxCell>
                <mxCell id="214" value="" style="edgeStyle=none;html=1;fontSize=14;" edge="1" parent="110" source="153" target="213">
                    <mxGeometry relative="1" as="geometry"/>
                </mxCell>
                <mxCell id="153" value="Read recv" style="rounded=1;whiteSpace=wrap;html=1;fillColor=#dae8fc;gradientColor=#7ea6e0;strokeColor=#6c8ebf;" vertex="1" parent="110">
                    <mxGeometry x="425" y="130" width="120" height="60" as="geometry"/>
                </mxCell>
                <mxCell id="216" value="" style="edgeStyle=none;html=1;fontSize=14;" edge="1" parent="110" source="213" target="215">
                    <mxGeometry relative="1" as="geometry"/>
                </mxCell>
                <mxCell id="213" value="Send to MAU" style="rounded=1;whiteSpace=wrap;html=1;fillColor=#dae8fc;gradientColor=#7ea6e0;strokeColor=#6c8ebf;" vertex="1" parent="110">
                    <mxGeometry x="425" y="220" width="120" height="60" as="geometry"/>
                </mxCell>
                <mxCell id="218" value="" style="edgeStyle=none;html=1;fontSize=14;" edge="1" parent="110" source="215" target="217">
                    <mxGeometry relative="1" as="geometry"/>
                </mxCell>
                <mxCell id="223" value="" style="edgeStyle=none;html=1;fontSize=14;" edge="1" parent="110" source="215" target="222">
                    <mxGeometry relative="1" as="geometry"/>
                </mxCell>
                <mxCell id="215" value="&lt;font style=&quot;font-size: 14px;&quot;&gt;Success?&lt;/font&gt;" style="rhombus;whiteSpace=wrap;html=1;fillStyle=auto;fontSize=16;fillColor=#f0a30a;fontColor=#000000;strokeColor=#BD7000;" vertex="1" parent="110">
                    <mxGeometry x="430" y="310" width="110" height="70" as="geometry"/>
                </mxCell>
                <mxCell id="220" value="" style="edgeStyle=none;html=1;fontSize=14;" edge="1" parent="110" source="217" target="219">
                    <mxGeometry relative="1" as="geometry"/>
                </mxCell>
                <mxCell id="217" value="No" style="rounded=0;whiteSpace=wrap;html=1;fillStyle=auto;fontSize=14;fillColor=#a20025;strokeColor=#6F0000;fontColor=#ffffff;" vertex="1" parent="110">
                    <mxGeometry x="580" y="330" width="60" height="30" as="geometry"/>
                </mxCell>
                <mxCell id="221" style="edgeStyle=none;html=1;exitX=0.5;exitY=0;exitDx=0;exitDy=0;entryX=1;entryY=0.5;entryDx=0;entryDy=0;fontSize=14;" edge="1" parent="110" source="219" target="111">
                    <mxGeometry relative="1" as="geometry">
                        <Array as="points">
                            <mxPoint x="750" y="70"/>
                        </Array>
                    </mxGeometry>
                </mxCell>
                <mxCell id="219" value="Send error" style="rounded=1;whiteSpace=wrap;html=1;fillColor=#dae8fc;gradientColor=#7ea6e0;strokeColor=#6c8ebf;" vertex="1" parent="110">
                    <mxGeometry x="690" y="315" width="120" height="60" as="geometry"/>
                </mxCell>
                <mxCell id="225" value="" style="edgeStyle=none;html=1;fontSize=14;" edge="1" parent="110" source="222" target="224">
                    <mxGeometry relative="1" as="geometry"/>
                </mxCell>
                <mxCell id="222" value="Yes" style="rounded=0;whiteSpace=wrap;html=1;fillStyle=auto;fontSize=14;fillColor=#60a917;strokeColor=#2D7600;fontColor=#ffffff;" vertex="1" parent="110">
                    <mxGeometry x="455" y="410" width="60" height="30" as="geometry"/>
                </mxCell>
                <mxCell id="248" value="" style="edgeStyle=none;html=1;fontSize=14;" edge="1" parent="110" source="224" target="226">
                    <mxGeometry relative="1" as="geometry"/>
                </mxCell>
                <mxCell id="224" value="Wait for MAU reply" style="rounded=1;whiteSpace=wrap;html=1;fillColor=#dae8fc;gradientColor=#7ea6e0;strokeColor=#6c8ebf;" vertex="1" parent="110">
                    <mxGeometry x="425" y="480" width="120" height="60" as="geometry"/>
                </mxCell>
                <mxCell id="246" value="" style="edgeStyle=none;html=1;fontSize=14;" edge="1" parent="110" source="226" target="245">
                    <mxGeometry relative="1" as="geometry"/>
                </mxCell>
                <mxCell id="250" value="" style="edgeStyle=none;html=1;fontSize=14;" edge="1" parent="110" source="226" target="249">
                    <mxGeometry relative="1" as="geometry"/>
                </mxCell>
                <mxCell id="226" value="&lt;font style=&quot;font-size: 14px;&quot;&gt;Expected&amp;nbsp;&lt;br&gt;result?&lt;br&gt;&lt;/font&gt;" style="rhombus;whiteSpace=wrap;html=1;fillStyle=auto;fontSize=16;fillColor=#f0a30a;fontColor=#000000;strokeColor=#BD7000;" vertex="1" parent="110">
                    <mxGeometry x="430" y="560" width="110" height="70" as="geometry"/>
                </mxCell>
                <mxCell id="247" style="edgeStyle=none;html=1;exitX=1;exitY=0.5;exitDx=0;exitDy=0;entryX=0.5;entryY=1;entryDx=0;entryDy=0;fontSize=14;" edge="1" parent="110" source="245" target="219">
                    <mxGeometry relative="1" as="geometry">
                        <Array as="points">
                            <mxPoint x="750" y="595"/>
                        </Array>
                    </mxGeometry>
                </mxCell>
                <mxCell id="245" value="No" style="rounded=0;whiteSpace=wrap;html=1;fillStyle=auto;fontSize=14;fillColor=#a20025;strokeColor=#6F0000;fontColor=#ffffff;" vertex="1" parent="110">
                    <mxGeometry x="580" y="580" width="60" height="30" as="geometry"/>
                </mxCell>
                <mxCell id="251" style="edgeStyle=none;html=1;exitX=0.5;exitY=0;exitDx=0;exitDy=0;entryX=0;entryY=0.5;entryDx=0;entryDy=0;fontSize=14;" edge="1" parent="110" source="249" target="111">
                    <mxGeometry relative="1" as="geometry">
                        <Array as="points">
                            <mxPoint x="370" y="70"/>
                        </Array>
                    </mxGeometry>
                </mxCell>
                <mxCell id="249" value="Yes" style="rounded=0;whiteSpace=wrap;html=1;fillStyle=auto;fontSize=14;fillColor=#60a917;strokeColor=#2D7600;fontColor=#ffffff;" vertex="1" parent="110">
                    <mxGeometry x="340" y="580" width="60" height="30" as="geometry"/>
                </mxCell>
                <mxCell id="252" value="" style="group" vertex="1" connectable="0" parent="1">
                    <mxGeometry x="360" y="50" width="465" height="260" as="geometry"/>
                </mxCell>
                <mxCell id="12" value="" style="rounded=0;whiteSpace=wrap;html=1;fontSize=16;dashed=1;fillColor=#FF9999;strokeColor=#b46504;fillStyle=hatch;" vertex="1" parent="252">
                    <mxGeometry x="170" y="10" width="120" height="250" as="geometry"/>
                </mxCell>
                <mxCell id="3" value="&lt;font style=&quot;font-size: 16px;&quot;&gt;UART&lt;br&gt;TASK&lt;/font&gt;" style="rounded=1;whiteSpace=wrap;html=1;fillColor=#e6d0de;gradientColor=#d5739d;strokeColor=#996185;" vertex="1" parent="252">
                    <mxGeometry y="70" width="120" height="60" as="geometry"/>
                </mxCell>
                <mxCell id="4" value="&lt;span style=&quot;font-size: 16px;&quot;&gt;MAU&lt;br&gt;&lt;/span&gt;&lt;font style=&quot;font-size: 16px;&quot;&gt;TASK&lt;/font&gt;" style="rounded=1;whiteSpace=wrap;html=1;fillColor=#e6d0de;gradientColor=#d5739d;strokeColor=#996185;" vertex="1" parent="252">
                    <mxGeometry x="345" y="70" width="120" height="60" as="geometry"/>
                </mxCell>
                <mxCell id="13" value="Notification" style="edgeStyle=none;html=1;exitX=0.5;exitY=0;exitDx=0;exitDy=0;entryX=0.5;entryY=0;entryDx=0;entryDy=0;fontSize=16;" edge="1" parent="252" source="3" target="4">
                    <mxGeometry relative="1" as="geometry">
                        <Array as="points">
                            <mxPoint x="60"/>
                            <mxPoint x="230"/>
                            <mxPoint x="405"/>
                        </Array>
                    </mxGeometry>
                </mxCell>
                <mxCell id="9" style="edgeStyle=none;html=1;exitX=1;exitY=0.5;exitDx=0;exitDy=0;entryX=0.25;entryY=0;entryDx=0;entryDy=0;fontSize=16;" edge="1" parent="252" source="6" target="4">
                    <mxGeometry relative="1" as="geometry">
                        <Array as="points">
                            <mxPoint x="375" y="40"/>
                        </Array>
                    </mxGeometry>
                </mxCell>
                <mxCell id="6" value="recv" style="rounded=0;whiteSpace=wrap;html=1;fontSize=16;" vertex="1" parent="252">
                    <mxGeometry x="200" y="30" width="60" height="20" as="geometry"/>
                </mxCell>
                <mxCell id="8" style="edgeStyle=none;html=1;exitX=0.75;exitY=0;exitDx=0;exitDy=0;entryX=0;entryY=0.5;entryDx=0;entryDy=0;fontSize=16;" edge="1" parent="252" source="3" target="6">
                    <mxGeometry relative="1" as="geometry">
                        <Array as="points">
                            <mxPoint x="90" y="40"/>
                        </Array>
                    </mxGeometry>
                </mxCell>
                <mxCell id="11" style="edgeStyle=none;html=1;exitX=0;exitY=0.5;exitDx=0;exitDy=0;entryX=0.75;entryY=1;entryDx=0;entryDy=0;fontSize=16;" edge="1" parent="252" source="7" target="3">
                    <mxGeometry relative="1" as="geometry">
                        <Array as="points">
                            <mxPoint x="90" y="170"/>
                        </Array>
                    </mxGeometry>
                </mxCell>
                <mxCell id="7" value="send" style="whiteSpace=wrap;html=1;fontSize=16;" vertex="1" parent="252">
                    <mxGeometry x="200" y="160" width="60" height="20" as="geometry"/>
                </mxCell>
                <mxCell id="10" style="edgeStyle=none;html=1;exitX=0.25;exitY=1;exitDx=0;exitDy=0;entryX=1;entryY=0.5;entryDx=0;entryDy=0;fontSize=16;" edge="1" parent="252" source="4" target="7">
                    <mxGeometry relative="1" as="geometry">
                        <Array as="points">
                            <mxPoint x="375" y="170"/>
                        </Array>
                    </mxGeometry>
                </mxCell>
                <mxCell id="14" value="Critical" style="text;html=1;align=center;verticalAlign=middle;resizable=0;points=[];autosize=1;strokeColor=#b85450;fillColor=#f8cecc;fontSize=16;dashed=1;gradientColor=#ea6b66;" vertex="1" parent="252">
                    <mxGeometry x="220" y="230" width="70" height="30" as="geometry"/>
                </mxCell>
                <mxCell id="158" style="edgeStyle=none;html=1;exitX=0;exitY=0.5;exitDx=0;exitDy=0;entryX=0.5;entryY=1;entryDx=0;entryDy=0;fontSize=14;" edge="1" parent="252" source="156" target="3">
                    <mxGeometry relative="1" as="geometry">
                        <Array as="points">
                            <mxPoint x="60" y="210"/>
                        </Array>
                    </mxGeometry>
                </mxCell>
                <mxCell id="156" value="error" style="whiteSpace=wrap;html=1;fontSize=16;" vertex="1" parent="252">
                    <mxGeometry x="200" y="200" width="60" height="20" as="geometry"/>
                </mxCell>
                <mxCell id="157" style="edgeStyle=none;html=1;exitX=0.5;exitY=1;exitDx=0;exitDy=0;entryX=1;entryY=0.5;entryDx=0;entryDy=0;fontSize=14;" edge="1" parent="252" source="4" target="156">
                    <mxGeometry relative="1" as="geometry">
                        <Array as="points">
                            <mxPoint x="405" y="210"/>
                        </Array>
                    </mxGeometry>
                </mxCell>
            </root>
        </mxGraphModel>
    </diagram>
</mxfile>